<mxfile modified="2021-03-19T13:14:28.831Z" host="app.diagrams.net" agent="5.0 (Macintosh; Intel Mac OS X 11_1_0) AppleWebKit/537.36 (KHTML, like Gecko) Chrome/89.0.4389.90 Safari/537.36" etag="x5sgp7l7deaJ9m-ayGub" version="14.4.8" type="github">
  <diagram id="Ht1M8jgEwFfnCIfOTk4-" name="Page-1">
    <mxGraphModel dx="1186" dy="739" grid="1" gridSize="10" guides="1" tooltips="1" connect="1" arrows="1" fold="1" page="1" pageScale="1" pageWidth="1169" pageHeight="827" math="0" shadow="0">
      <root>
        <mxCell id="0" />
        <mxCell id="1" parent="0" />
        <mxCell id="-QjtrjUzRDEMRZ5MF8oH-9" value="1" style="rounded=1;whiteSpace=wrap;html=1;fillColor=#007CBD;strokeColor=none;fontColor=#FFFFFF;fontStyle=1;fontSize=22;" parent="1" vertex="1">
          <mxGeometry x="43.5" y="520" width="40" height="38" as="geometry" />
        </mxCell>
        <mxCell id="-QjtrjUzRDEMRZ5MF8oH-27" value="2" style="rounded=1;whiteSpace=wrap;html=1;fillColor=#007CBD;strokeColor=none;fontColor=#FFFFFF;fontStyle=1;fontSize=22;" parent="1" vertex="1">
          <mxGeometry x="135.5" y="357.5" width="40" height="38" as="geometry" />
        </mxCell>
        <mxCell id="-QjtrjUzRDEMRZ5MF8oH-28" value="3" style="rounded=1;whiteSpace=wrap;html=1;fillColor=#007CBD;strokeColor=none;fontColor=#FFFFFF;fontStyle=1;fontSize=22;" parent="1" vertex="1">
          <mxGeometry x="270" y="278" width="40" height="38" as="geometry" />
        </mxCell>
        <mxCell id="-QjtrjUzRDEMRZ5MF8oH-29" value="4" style="rounded=1;whiteSpace=wrap;html=1;fillColor=#007CBD;strokeColor=none;fontColor=#FFFFFF;fontStyle=1;fontSize=22;" parent="1" vertex="1">
          <mxGeometry x="290" y="672" width="40" height="38" as="geometry" />
        </mxCell>
        <mxCell id="-QjtrjUzRDEMRZ5MF8oH-30" value="5" style="rounded=1;whiteSpace=wrap;html=1;fillColor=#007CBD;strokeColor=none;fontColor=#FFFFFF;fontStyle=1;fontSize=22;" parent="1" vertex="1">
          <mxGeometry x="470" y="552" width="40" height="38" as="geometry" />
        </mxCell>
        <mxCell id="-QjtrjUzRDEMRZ5MF8oH-31" value="6" style="rounded=1;whiteSpace=wrap;html=1;fillColor=#007CBD;strokeColor=none;fontColor=#FFFFFF;fontStyle=1;fontSize=22;" parent="1" vertex="1">
          <mxGeometry x="275.5" y="406" width="40" height="40" as="geometry" />
        </mxCell>
        <mxCell id="-QjtrjUzRDEMRZ5MF8oH-33" value="8" style="rounded=1;whiteSpace=wrap;html=1;fillColor=#007CBD;strokeColor=none;fontColor=#FFFFFF;fontStyle=1;fontSize=22;" parent="1" vertex="1">
          <mxGeometry x="620" y="339.5" width="40" height="38" as="geometry" />
        </mxCell>
        <mxCell id="-QjtrjUzRDEMRZ5MF8oH-47" value="SE 서버 구조도" style="text;html=1;resizable=0;points=[];autosize=1;align=left;verticalAlign=top;spacingTop=-4;fontSize=30;fontStyle=1" parent="1" vertex="1">
          <mxGeometry x="55.5" y="65.5" width="200" height="40" as="geometry" />
        </mxCell>
        <mxCell id="-QjtrjUzRDEMRZ5MF8oH-48" value="상상코딩 by 손우진" style="text;html=1;resizable=0;points=[];autosize=1;align=left;verticalAlign=top;spacingTop=-4;fontSize=16;" parent="1" vertex="1">
          <mxGeometry x="55.5" y="115.5" width="140" height="20" as="geometry" />
        </mxCell>
        <mxCell id="SCVMTBWpLvtzJIhz15lM-1" value="" style="line;strokeWidth=2;html=1;fontSize=14;" parent="1" vertex="1">
          <mxGeometry x="51.5" y="140.5" width="1060" height="10" as="geometry" />
        </mxCell>
        <mxCell id="7OVz4w7n9kzEPWy-4BBC-3" value="" style="rounded=0;whiteSpace=wrap;html=1;fillColor=#EAEDED;fontSize=22;fontColor=#FFFFFF;strokeColor=none;labelBackgroundColor=none;" parent="1" vertex="1">
          <mxGeometry x="1151" y="51" width="539" height="949" as="geometry" />
        </mxCell>
        <mxCell id="7OVz4w7n9kzEPWy-4BBC-4" value="1" style="rounded=1;whiteSpace=wrap;html=1;fillColor=#007CBD;strokeColor=none;fontColor=#FFFFFF;fontStyle=1;fontSize=22;labelBackgroundColor=none;" parent="1" vertex="1">
          <mxGeometry x="1168" y="64" width="40" height="38" as="geometry" />
        </mxCell>
        <mxCell id="7OVz4w7n9kzEPWy-4BBC-5" value="2" style="rounded=1;whiteSpace=wrap;html=1;fillColor=#007CBD;strokeColor=none;fontColor=#FFFFFF;fontStyle=1;fontSize=22;labelBackgroundColor=none;" parent="1" vertex="1">
          <mxGeometry x="1166.5" y="186" width="40" height="38" as="geometry" />
        </mxCell>
        <mxCell id="7OVz4w7n9kzEPWy-4BBC-6" value="3" style="rounded=1;whiteSpace=wrap;html=1;fillColor=#007CBD;strokeColor=none;fontColor=#FFFFFF;fontStyle=1;fontSize=22;labelBackgroundColor=none;" parent="1" vertex="1">
          <mxGeometry x="1166.5" y="306" width="40" height="38" as="geometry" />
        </mxCell>
        <mxCell id="7OVz4w7n9kzEPWy-4BBC-7" value="4" style="rounded=1;whiteSpace=wrap;html=1;fillColor=#007CBD;strokeColor=none;fontColor=#FFFFFF;fontStyle=1;fontSize=22;labelBackgroundColor=none;" parent="1" vertex="1">
          <mxGeometry x="1166.5" y="420" width="40" height="38" as="geometry" />
        </mxCell>
        <mxCell id="7OVz4w7n9kzEPWy-4BBC-8" value="5" style="rounded=1;whiteSpace=wrap;html=1;fillColor=#007CBD;strokeColor=none;fontColor=#FFFFFF;fontStyle=1;fontSize=22;labelBackgroundColor=none;" parent="1" vertex="1">
          <mxGeometry x="1168" y="537" width="40" height="38" as="geometry" />
        </mxCell>
        <mxCell id="7OVz4w7n9kzEPWy-4BBC-9" value="6" style="rounded=1;whiteSpace=wrap;html=1;fillColor=#007CBD;strokeColor=none;fontColor=#FFFFFF;fontStyle=1;fontSize=22;labelBackgroundColor=none;" parent="1" vertex="1">
          <mxGeometry x="1169" y="652" width="40" height="38" as="geometry" />
        </mxCell>
        <mxCell id="7OVz4w7n9kzEPWy-4BBC-10" value="7" style="rounded=1;whiteSpace=wrap;html=1;fillColor=#007CBD;strokeColor=none;fontColor=#FFFFFF;fontStyle=1;fontSize=22;labelBackgroundColor=none;" parent="1" vertex="1">
          <mxGeometry x="1168.5" y="768" width="40" height="38" as="geometry" />
        </mxCell>
        <mxCell id="7OVz4w7n9kzEPWy-4BBC-11" value="8" style="rounded=1;whiteSpace=wrap;html=1;fillColor=#007CBD;strokeColor=none;fontColor=#FFFFFF;fontStyle=1;fontSize=22;labelBackgroundColor=none;" parent="1" vertex="1">
          <mxGeometry x="1169" y="886" width="40" height="38" as="geometry" />
        </mxCell>
        <mxCell id="KXyTK-ucqqBI8cOAoans-45" style="edgeStyle=orthogonalEdgeStyle;rounded=0;orthogonalLoop=1;jettySize=auto;html=1;exitX=1;exitY=0.5;exitDx=0;exitDy=0;exitPerimeter=0;entryX=-0.25;entryY=0.567;entryDx=0;entryDy=0;entryPerimeter=0;fontSize=15;" parent="1" source="hOtU8IeM5oXhdynpByNJ-2" target="KXyTK-ucqqBI8cOAoans-21" edge="1">
          <mxGeometry relative="1" as="geometry">
            <Array as="points">
              <mxPoint x="180" y="606" />
              <mxPoint x="180" y="403" />
            </Array>
          </mxGeometry>
        </mxCell>
        <mxCell id="HzOze0uKhX0-1kiT98_K-8" style="edgeStyle=orthogonalEdgeStyle;rounded=0;orthogonalLoop=1;jettySize=auto;html=1;exitX=1;exitY=0.5;exitDx=0;exitDy=0;exitPerimeter=0;entryX=0.5;entryY=0;entryDx=0;entryDy=0;" edge="1" parent="1" source="hOtU8IeM5oXhdynpByNJ-2" target="hOtU8IeM5oXhdynpByNJ-4">
          <mxGeometry relative="1" as="geometry" />
        </mxCell>
        <mxCell id="HzOze0uKhX0-1kiT98_K-11" style="edgeStyle=orthogonalEdgeStyle;rounded=0;orthogonalLoop=1;jettySize=auto;html=1;exitX=1;exitY=0.5;exitDx=0;exitDy=0;exitPerimeter=0;entryX=0;entryY=0.5;entryDx=0;entryDy=0;" edge="1" parent="1" source="hOtU8IeM5oXhdynpByNJ-2" target="HzOze0uKhX0-1kiT98_K-5">
          <mxGeometry relative="1" as="geometry">
            <Array as="points">
              <mxPoint x="200" y="606" />
              <mxPoint x="200" y="835" />
            </Array>
          </mxGeometry>
        </mxCell>
        <mxCell id="HzOze0uKhX0-1kiT98_K-12" style="edgeStyle=orthogonalEdgeStyle;rounded=0;orthogonalLoop=1;jettySize=auto;html=1;exitX=1;exitY=0.5;exitDx=0;exitDy=0;exitPerimeter=0;entryX=0;entryY=0.5;entryDx=0;entryDy=0;" edge="1" parent="1" source="hOtU8IeM5oXhdynpByNJ-2" target="KXyTK-ucqqBI8cOAoans-1">
          <mxGeometry relative="1" as="geometry">
            <Array as="points">
              <mxPoint x="220" y="606" />
              <mxPoint x="220" y="770" />
              <mxPoint x="450" y="770" />
              <mxPoint x="450" y="602" />
            </Array>
          </mxGeometry>
        </mxCell>
        <mxCell id="HzOze0uKhX0-1kiT98_K-15" style="edgeStyle=orthogonalEdgeStyle;rounded=0;orthogonalLoop=1;jettySize=auto;html=1;exitX=1;exitY=0.5;exitDx=0;exitDy=0;exitPerimeter=0;entryX=0.4;entryY=0.869;entryDx=0;entryDy=0;entryPerimeter=0;" edge="1" parent="1" source="hOtU8IeM5oXhdynpByNJ-2" target="hOtU8IeM5oXhdynpByNJ-5">
          <mxGeometry relative="1" as="geometry" />
        </mxCell>
        <mxCell id="hOtU8IeM5oXhdynpByNJ-2" value="" style="outlineConnect=0;dashed=0;verticalLabelPosition=bottom;verticalAlign=top;align=center;html=1;shape=mxgraph.aws3.customer_gateway;fillColor=#F58536;gradientColor=none;" parent="1" vertex="1">
          <mxGeometry x="29" y="570" width="69" height="72" as="geometry" />
        </mxCell>
        <mxCell id="hOtU8IeM5oXhdynpByNJ-3" value="&lt;font style=&quot;font-size: 15px&quot;&gt;API GATEWAY&lt;/font&gt;" style="text;html=1;strokeColor=none;fillColor=none;align=center;verticalAlign=middle;whiteSpace=wrap;rounded=0;" parent="1" vertex="1">
          <mxGeometry x="43.5" y="652" width="40" height="20" as="geometry" />
        </mxCell>
        <mxCell id="KXyTK-ucqqBI8cOAoans-37" style="edgeStyle=orthogonalEdgeStyle;rounded=0;orthogonalLoop=1;jettySize=auto;html=1;exitX=0;exitY=0.5;exitDx=0;exitDy=0;fontSize=15;" parent="1" source="hOtU8IeM5oXhdynpByNJ-4" target="KXyTK-ucqqBI8cOAoans-36" edge="1">
          <mxGeometry relative="1" as="geometry" />
        </mxCell>
        <mxCell id="HzOze0uKhX0-1kiT98_K-13" style="edgeStyle=orthogonalEdgeStyle;rounded=0;orthogonalLoop=1;jettySize=auto;html=1;exitX=1;exitY=0.5;exitDx=0;exitDy=0;entryX=1;entryY=0.5;entryDx=0;entryDy=0;" edge="1" parent="1" source="hOtU8IeM5oXhdynpByNJ-4" target="KXyTK-ucqqBI8cOAoans-2">
          <mxGeometry relative="1" as="geometry" />
        </mxCell>
        <mxCell id="HzOze0uKhX0-1kiT98_K-14" style="edgeStyle=orthogonalEdgeStyle;rounded=0;orthogonalLoop=1;jettySize=auto;html=1;exitX=1;exitY=0.5;exitDx=0;exitDy=0;entryX=0;entryY=0.5;entryDx=0;entryDy=0;" edge="1" parent="1" source="hOtU8IeM5oXhdynpByNJ-4" target="KXyTK-ucqqBI8cOAoans-1">
          <mxGeometry relative="1" as="geometry" />
        </mxCell>
        <mxCell id="HzOze0uKhX0-1kiT98_K-17" style="edgeStyle=orthogonalEdgeStyle;rounded=0;orthogonalLoop=1;jettySize=auto;html=1;exitX=0.25;exitY=0;exitDx=0;exitDy=0;entryX=0.75;entryY=1;entryDx=0;entryDy=0;" edge="1" parent="1" source="hOtU8IeM5oXhdynpByNJ-4" target="hOtU8IeM5oXhdynpByNJ-5">
          <mxGeometry relative="1" as="geometry" />
        </mxCell>
        <mxCell id="hOtU8IeM5oXhdynpByNJ-4" value="" style="shape=image;html=1;verticalAlign=top;verticalLabelPosition=bottom;labelBackgroundColor=#ffffff;imageAspect=0;aspect=fixed;image=https://cdn1.iconfinder.com/data/icons/logos-and-brands-3/512/97_Docker_logo_logos-128.png" parent="1" vertex="1">
          <mxGeometry x="320" y="601" width="80" height="80" as="geometry" />
        </mxCell>
        <mxCell id="KXyTK-ucqqBI8cOAoans-40" style="edgeStyle=orthogonalEdgeStyle;rounded=0;orthogonalLoop=1;jettySize=auto;html=1;exitX=0;exitY=0.5;exitDx=0;exitDy=0;entryX=1;entryY=0.5;entryDx=0;entryDy=0;entryPerimeter=0;fontSize=15;" parent="1" source="hOtU8IeM5oXhdynpByNJ-5" edge="1">
          <mxGeometry relative="1" as="geometry">
            <mxPoint x="60" y="410.5" as="targetPoint" />
          </mxGeometry>
        </mxCell>
        <mxCell id="hOtU8IeM5oXhdynpByNJ-5" value="" style="shape=image;html=1;verticalAlign=top;verticalLabelPosition=bottom;labelBackgroundColor=#ffffff;imageAspect=0;aspect=fixed;image=https://cdn1.iconfinder.com/data/icons/logos-and-brands-3/512/97_Docker_logo_logos-128.png" parent="1" vertex="1">
          <mxGeometry x="88" y="370.5" width="80" height="80" as="geometry" />
        </mxCell>
        <mxCell id="KXyTK-ucqqBI8cOAoans-32" style="edgeStyle=orthogonalEdgeStyle;rounded=0;orthogonalLoop=1;jettySize=auto;html=1;exitX=1;exitY=0.5;exitDx=0;exitDy=0;entryX=-0.05;entryY=0.627;entryDx=0;entryDy=0;entryPerimeter=0;fontSize=15;" parent="1" source="KXyTK-ucqqBI8cOAoans-1" target="KXyTK-ucqqBI8cOAoans-30" edge="1">
          <mxGeometry relative="1" as="geometry" />
        </mxCell>
        <mxCell id="KXyTK-ucqqBI8cOAoans-1" value="" style="shape=image;html=1;verticalAlign=top;verticalLabelPosition=bottom;labelBackgroundColor=#ffffff;imageAspect=0;aspect=fixed;image=https://cdn1.iconfinder.com/data/icons/logos-and-brands-3/512/97_Docker_logo_logos-128.png" parent="1" vertex="1">
          <mxGeometry x="490" y="562" width="80" height="80" as="geometry" />
        </mxCell>
        <mxCell id="KXyTK-ucqqBI8cOAoans-2" value="" style="shape=image;html=1;verticalAlign=top;verticalLabelPosition=bottom;labelBackgroundColor=#ffffff;imageAspect=0;aspect=fixed;image=https://cdn1.iconfinder.com/data/icons/logos-and-brands-3/512/97_Docker_logo_logos-128.png" parent="1" vertex="1">
          <mxGeometry x="300" y="414" width="80" height="80" as="geometry" />
        </mxCell>
        <mxCell id="KXyTK-ucqqBI8cOAoans-3" value="&lt;font style=&quot;font-size: 15px&quot;&gt;Auth&lt;/font&gt;" style="text;html=1;strokeColor=none;fillColor=none;align=center;verticalAlign=middle;whiteSpace=wrap;rounded=0;" parent="1" vertex="1">
          <mxGeometry x="108" y="453.5" width="40" height="20" as="geometry" />
        </mxCell>
        <mxCell id="KXyTK-ucqqBI8cOAoans-4" value="&lt;font style=&quot;font-size: 15px;&quot;&gt;Picple&lt;/font&gt;" style="text;html=1;strokeColor=none;fillColor=none;align=center;verticalAlign=middle;whiteSpace=wrap;rounded=0;fontSize=15;" parent="1" vertex="1">
          <mxGeometry x="340" y="681" width="40" height="20" as="geometry" />
        </mxCell>
        <mxCell id="KXyTK-ucqqBI8cOAoans-7" value="&lt;font style=&quot;font-size: 15px&quot;&gt;Notification&lt;/font&gt;" style="text;html=1;strokeColor=none;fillColor=none;align=center;verticalAlign=middle;whiteSpace=wrap;rounded=0;" parent="1" vertex="1">
          <mxGeometry x="295.5" y="494.5" width="40" height="20" as="geometry" />
        </mxCell>
        <mxCell id="KXyTK-ucqqBI8cOAoans-9" value="&lt;font style=&quot;font-size: 15px&quot;&gt;Log&lt;/font&gt;" style="text;html=1;strokeColor=none;fillColor=none;align=center;verticalAlign=middle;whiteSpace=wrap;rounded=0;" parent="1" vertex="1">
          <mxGeometry x="510" y="641" width="40" height="20" as="geometry" />
        </mxCell>
        <mxCell id="KXyTK-ucqqBI8cOAoans-38" style="edgeStyle=orthogonalEdgeStyle;rounded=0;orthogonalLoop=1;jettySize=auto;html=1;exitX=0.5;exitY=0;exitDx=0;exitDy=0;entryX=0.5;entryY=0.975;entryDx=0;entryDy=0;entryPerimeter=0;fontSize=15;" parent="1" source="KXyTK-ucqqBI8cOAoans-10" target="KXyTK-ucqqBI8cOAoans-35" edge="1">
          <mxGeometry relative="1" as="geometry" />
        </mxCell>
        <mxCell id="HzOze0uKhX0-1kiT98_K-7" style="edgeStyle=orthogonalEdgeStyle;rounded=0;orthogonalLoop=1;jettySize=auto;html=1;exitX=1;exitY=0.5;exitDx=0;exitDy=0;entryX=1;entryY=0.5;entryDx=0;entryDy=0;" edge="1" parent="1" source="KXyTK-ucqqBI8cOAoans-10" target="KXyTK-ucqqBI8cOAoans-2">
          <mxGeometry relative="1" as="geometry" />
        </mxCell>
        <mxCell id="HzOze0uKhX0-1kiT98_K-18" style="edgeStyle=orthogonalEdgeStyle;rounded=0;orthogonalLoop=1;jettySize=auto;html=1;exitX=0;exitY=0.75;exitDx=0;exitDy=0;entryX=0.25;entryY=0;entryDx=0;entryDy=0;" edge="1" parent="1" source="KXyTK-ucqqBI8cOAoans-10" target="hOtU8IeM5oXhdynpByNJ-5">
          <mxGeometry relative="1" as="geometry" />
        </mxCell>
        <mxCell id="KXyTK-ucqqBI8cOAoans-10" value="" style="shape=image;html=1;verticalAlign=top;verticalLabelPosition=bottom;labelBackgroundColor=#ffffff;imageAspect=0;aspect=fixed;image=https://cdn1.iconfinder.com/data/icons/logos-and-brands-3/512/97_Docker_logo_logos-128.png" parent="1" vertex="1">
          <mxGeometry x="290" y="283.5" width="80" height="80" as="geometry" />
        </mxCell>
        <mxCell id="KXyTK-ucqqBI8cOAoans-11" value="&lt;font style=&quot;font-size: 15px&quot;&gt;Main&lt;/font&gt;" style="text;html=1;strokeColor=none;fillColor=none;align=center;verticalAlign=middle;whiteSpace=wrap;rounded=0;" parent="1" vertex="1">
          <mxGeometry x="304.5" y="357.5" width="40" height="20" as="geometry" />
        </mxCell>
        <mxCell id="KXyTK-ucqqBI8cOAoans-21" value="" style="shape=curlyBracket;whiteSpace=wrap;html=1;rounded=1;fontSize=15;size=0;" parent="1" vertex="1">
          <mxGeometry x="240" y="316" width="20" height="154" as="geometry" />
        </mxCell>
        <mxCell id="KXyTK-ucqqBI8cOAoans-26" value="" style="outlineConnect=0;dashed=0;verticalLabelPosition=bottom;verticalAlign=top;align=center;html=1;shape=mxgraph.aws3.elasticsearch_service;fillColor=#F58534;gradientColor=none;fontSize=15;" parent="1" vertex="1">
          <mxGeometry x="670" y="465" width="80" height="81" as="geometry" />
        </mxCell>
        <mxCell id="KXyTK-ucqqBI8cOAoans-27" value="" style="verticalLabelPosition=bottom;html=1;fillColor=#A153A0;strokeColor=#ffffff;verticalAlign=top;align=center;points=[[0,0.5,0],[0.125,0.25,0],[0.25,0,0],[0.5,0,0],[0.75,0,0],[0.875,0.25,0],[1,0.5,0],[0.875,0.75,0],[0.75,1,0],[0.5,1,0],[0.125,0.75,0]];pointerEvents=1;shape=mxgraph.cisco_safe.compositeIcon;bgIcon=mxgraph.cisco_safe.design.blank_device;resIcon=mxgraph.cisco_safe.design.log_collector;fontSize=15;aspect=fixed;" parent="1" vertex="1">
          <mxGeometry x="670" y="575.5" width="80" height="72" as="geometry" />
        </mxCell>
        <mxCell id="KXyTK-ucqqBI8cOAoans-28" value="" style="outlineConnect=0;dashed=0;verticalLabelPosition=bottom;verticalAlign=top;align=center;html=1;shape=mxgraph.aws3.redis;fillColor=#2E73B8;gradientColor=none;fontSize=15;" parent="1" vertex="1">
          <mxGeometry x="670" y="377.5" width="80" height="63" as="geometry" />
        </mxCell>
        <mxCell id="KXyTK-ucqqBI8cOAoans-29" value="" style="shape=image;html=1;verticalAlign=top;verticalLabelPosition=bottom;labelBackgroundColor=#ffffff;imageAspect=0;aspect=fixed;image=https://cdn4.iconfinder.com/data/icons/logos-brands-5/24/kibana-128.png;fontSize=15;" parent="1" vertex="1">
          <mxGeometry x="670" y="683.5" width="80" height="80" as="geometry" />
        </mxCell>
        <mxCell id="KXyTK-ucqqBI8cOAoans-30" value="" style="shape=curlyBracket;whiteSpace=wrap;html=1;rounded=1;fontSize=15;size=0;" parent="1" vertex="1">
          <mxGeometry x="640" y="406" width="20" height="314" as="geometry" />
        </mxCell>
        <mxCell id="KXyTK-ucqqBI8cOAoans-35" value="" style="outlineConnect=0;dashed=0;verticalLabelPosition=bottom;verticalAlign=top;align=center;html=1;shape=mxgraph.aws3.mysql_db_instance;fillColor=#2E73B8;gradientColor=none;fontSize=15;" parent="1" vertex="1">
          <mxGeometry x="300" y="185.5" width="60" height="64.5" as="geometry" />
        </mxCell>
        <mxCell id="KXyTK-ucqqBI8cOAoans-36" value="" style="outlineConnect=0;dashed=0;verticalLabelPosition=bottom;verticalAlign=top;align=center;html=1;shape=mxgraph.aws3.mysql_db_instance;fillColor=#2E73B8;gradientColor=none;fontSize=15;" parent="1" vertex="1">
          <mxGeometry x="240" y="608.75" width="60" height="64.5" as="geometry" />
        </mxCell>
        <mxCell id="KXyTK-ucqqBI8cOAoans-41" value="" style="shape=image;html=1;verticalAlign=top;verticalLabelPosition=bottom;labelBackgroundColor=#ffffff;imageAspect=0;aspect=fixed;image=https://cdn4.iconfinder.com/data/icons/logos-brands-5/24/jenkins-128.png;fontSize=15;" parent="1" vertex="1">
          <mxGeometry x="51.5" y="185.5" width="91.75" height="91.75" as="geometry" />
        </mxCell>
        <mxCell id="KXyTK-ucqqBI8cOAoans-42" value="&lt;font style=&quot;font-size: 15px&quot;&gt;CICD&lt;/font&gt;" style="text;html=1;strokeColor=none;fillColor=none;align=center;verticalAlign=middle;whiteSpace=wrap;rounded=0;" parent="1" vertex="1">
          <mxGeometry x="77.38" y="283.5" width="40" height="20" as="geometry" />
        </mxCell>
        <mxCell id="KXyTK-ucqqBI8cOAoans-47" value="&lt;span style=&quot;color: rgb(0 , 0 , 0) ; font-family: &amp;#34;helvetica&amp;#34; ; font-size: 15px ; font-style: normal ; font-weight: 400 ; letter-spacing: normal ; text-align: center ; text-indent: 0px ; text-transform: none ; word-spacing: 0px ; background-color: rgb(248 , 249 , 250) ; display: inline ; float: none&quot;&gt;Kibana&lt;/span&gt;" style="text;whiteSpace=wrap;html=1;fontSize=15;" parent="1" vertex="1">
          <mxGeometry x="685" y="772" width="50" height="30" as="geometry" />
        </mxCell>
        <mxCell id="KXyTK-ucqqBI8cOAoans-48" value="&lt;span style=&quot;color: rgb(0 , 0 , 0) ; font-family: &amp;#34;helvetica&amp;#34; ; font-size: 15px ; font-style: normal ; font-weight: 400 ; letter-spacing: normal ; text-align: center ; text-indent: 0px ; text-transform: none ; word-spacing: 0px ; background-color: rgb(248 , 249 , 250) ; display: inline ; float: none&quot;&gt;logstash&lt;/span&gt;" style="text;whiteSpace=wrap;html=1;fontSize=15;" parent="1" vertex="1">
          <mxGeometry x="680" y="647" width="70" height="30" as="geometry" />
        </mxCell>
        <mxCell id="KXyTK-ucqqBI8cOAoans-49" value="&lt;div style=&quot;text-align: center&quot;&gt;&lt;span&gt;&lt;font face=&quot;helvetica&quot;&gt;ES&lt;/font&gt;&lt;/span&gt;&lt;/div&gt;" style="text;whiteSpace=wrap;html=1;fontSize=15;" parent="1" vertex="1">
          <mxGeometry x="700" y="546" width="80" height="30" as="geometry" />
        </mxCell>
        <mxCell id="KXyTK-ucqqBI8cOAoans-50" value="&lt;span style=&quot;color: rgb(0 , 0 , 0) ; font-family: &amp;#34;helvetica&amp;#34; ; font-size: 15px ; font-style: normal ; font-weight: 400 ; letter-spacing: normal ; text-align: center ; text-indent: 0px ; text-transform: none ; word-spacing: 0px ; background-color: rgb(248 , 249 , 250) ; display: inline ; float: none&quot;&gt;Redis&lt;/span&gt;" style="text;whiteSpace=wrap;html=1;fontSize=15;" parent="1" vertex="1">
          <mxGeometry x="690" y="440.5" width="80" height="30" as="geometry" />
        </mxCell>
        <mxCell id="KXyTK-ucqqBI8cOAoans-51" value="Spring Cloud Gateway (IN Docker)" style="text;html=1;strokeColor=none;fillColor=none;align=left;verticalAlign=middle;whiteSpace=wrap;rounded=0;fontSize=25;" parent="1" vertex="1">
          <mxGeometry x="1220" y="65.5" width="460" height="20" as="geometry" />
        </mxCell>
        <mxCell id="KXyTK-ucqqBI8cOAoans-54" value="Authentication Server" style="text;html=1;strokeColor=none;fillColor=none;align=left;verticalAlign=middle;whiteSpace=wrap;rounded=0;fontSize=25;" parent="1" vertex="1">
          <mxGeometry x="1220" y="195" width="460" height="20" as="geometry" />
        </mxCell>
        <mxCell id="KXyTK-ucqqBI8cOAoans-55" value="Main Server (시간표, 메인)" style="text;html=1;strokeColor=none;fillColor=none;align=left;verticalAlign=middle;whiteSpace=wrap;rounded=0;fontSize=25;" parent="1" vertex="1">
          <mxGeometry x="1220" y="316" width="460" height="20" as="geometry" />
        </mxCell>
        <mxCell id="KXyTK-ucqqBI8cOAoans-56" value="Picple Server" style="text;html=1;strokeColor=none;fillColor=none;align=left;verticalAlign=middle;whiteSpace=wrap;rounded=0;fontSize=25;" parent="1" vertex="1">
          <mxGeometry x="1220" y="432" width="460" height="20" as="geometry" />
        </mxCell>
        <mxCell id="KXyTK-ucqqBI8cOAoans-57" value="Logging Server" style="text;html=1;strokeColor=none;fillColor=none;align=left;verticalAlign=middle;whiteSpace=wrap;rounded=0;fontSize=25;" parent="1" vertex="1">
          <mxGeometry x="1220" y="546" width="460" height="20" as="geometry" />
        </mxCell>
        <mxCell id="KXyTK-ucqqBI8cOAoans-58" value="Notification Server" style="text;html=1;strokeColor=none;fillColor=none;align=left;verticalAlign=middle;whiteSpace=wrap;rounded=0;fontSize=25;" parent="1" vertex="1">
          <mxGeometry x="1220" y="661" width="460" height="20" as="geometry" />
        </mxCell>
        <mxCell id="KXyTK-ucqqBI8cOAoans-59" value="Kafka (Noti &amp;amp; Log 동기화)" style="text;html=1;strokeColor=none;fillColor=none;align=left;verticalAlign=middle;whiteSpace=wrap;rounded=0;fontSize=25;" parent="1" vertex="1">
          <mxGeometry x="1220" y="775.25" width="460" height="20" as="geometry" />
        </mxCell>
        <mxCell id="KXyTK-ucqqBI8cOAoans-60" value="Log 저장 DB 스택" style="text;html=1;strokeColor=none;fillColor=none;align=left;verticalAlign=middle;whiteSpace=wrap;rounded=0;fontSize=25;" parent="1" vertex="1">
          <mxGeometry x="1220" y="895" width="460" height="20" as="geometry" />
        </mxCell>
        <mxCell id="HzOze0uKhX0-1kiT98_K-5" value="" style="shape=image;html=1;verticalAlign=top;verticalLabelPosition=bottom;labelBackgroundColor=#ffffff;imageAspect=0;aspect=fixed;image=https://cdn1.iconfinder.com/data/icons/logos-and-brands-3/512/97_Docker_logo_logos-128.png" vertex="1" parent="1">
          <mxGeometry x="280" y="795" width="80" height="80" as="geometry" />
        </mxCell>
        <mxCell id="HzOze0uKhX0-1kiT98_K-6" value="File Server" style="text;html=1;strokeColor=none;fillColor=none;align=center;verticalAlign=middle;whiteSpace=wrap;rounded=0;fontSize=15;" vertex="1" parent="1">
          <mxGeometry x="295.5" y="875" width="40" height="20" as="geometry" />
        </mxCell>
        <mxCell id="HzOze0uKhX0-1kiT98_K-16" value="" style="aspect=fixed;html=1;points=[];align=center;image;fontSize=12;image=img/lib/azure2/databases/Cache_Redis.svg;" vertex="1" parent="1">
          <mxGeometry y="385" width="64" height="52" as="geometry" />
        </mxCell>
      </root>
    </mxGraphModel>
  </diagram>
</mxfile>
